<mxfile host="app.diagrams.net" agent="Mozilla/5.0 (Windows NT 10.0; Win64; x64) AppleWebKit/537.36 (KHTML, like Gecko) Chrome/136.0.0.0 Safari/537.36" version="26.1.1">
  <diagram name="RTSP Controller Flow" id="fEzFfixYsrc_N7csI4Yp">
    <mxGraphModel dx="658" dy="2257" grid="1" gridSize="10" guides="1" tooltips="1" connect="1" arrows="1" fold="1" page="1" pageScale="1" pageWidth="827" pageHeight="1169" math="0" shadow="0">
      <root>
        <mxCell id="0" />
        <mxCell id="1" parent="0" />
        <mxCell id="NTYFQSR5KiZM-KbyBYHa-91" value="" style="rounded=1;whiteSpace=wrap;html=1;" vertex="1" parent="1">
          <mxGeometry x="720" y="345" width="860" height="440" as="geometry" />
        </mxCell>
        <mxCell id="NTYFQSR5KiZM-KbyBYHa-1" value="Start" style="ellipse;whiteSpace=wrap;html=1;fillColor=#dae8fc;strokeColor=#6c8ebf;" vertex="1" parent="1">
          <mxGeometry x="475" y="-230" width="120" height="40" as="geometry" />
        </mxCell>
        <mxCell id="NTYFQSR5KiZM-KbyBYHa-2" value="System Init&lt;br&gt;- Init k3s client&lt;br&gt;- Init MQTT Client&lt;br&gt;- Setup Prometheus Metrics&lt;div&gt;&lt;br&gt;&lt;/div&gt;" style="rounded=0;whiteSpace=wrap;html=1;fillColor=#f5f5f5;strokeColor=#666666;fontColor=#333333;align=left;" vertex="1" parent="1">
          <mxGeometry x="435" y="-160" width="200" height="80" as="geometry" />
        </mxCell>
        <mxCell id="NTYFQSR5KiZM-KbyBYHa-3" value="&lt;div&gt;&lt;span style=&quot;background-color: transparent; color: light-dark(rgb(51, 51, 51), rgb(193, 193, 193));&quot;&gt;RTSPConfig Init&lt;/span&gt;&lt;/div&gt;- Create source-list-origin (if needed)&lt;br&gt;- Load ConfigMap&lt;br&gt;- Init node/camera status and records（rtsp&amp;lt;-&amp;gt;nodes :orgin and now）&lt;br&gt;&lt;div&gt;- Init Heartbeat Timestamp&lt;/div&gt;" style="rounded=0;whiteSpace=wrap;html=1;fillColor=#f5f5f5;strokeColor=#666666;fontColor=#333333;align=left;" vertex="1" parent="1">
          <mxGeometry x="364" y="-50" width="366" height="150" as="geometry" />
        </mxCell>
        <mxCell id="NTYFQSR5KiZM-KbyBYHa-4" value="" style="rounded=0;whiteSpace=wrap;html=1;fillColor=none;strokeColor=none;" vertex="1" parent="1">
          <mxGeometry x="490" y="270" width="80" height="20" as="geometry" />
        </mxCell>
        <mxCell id="NTYFQSR5KiZM-KbyBYHa-5" value="Heartbeat check&lt;div&gt;&lt;br&gt;&lt;/div&gt;" style="rounded=1;whiteSpace=wrap;html=1;fillColor=#ffe6cc;strokeColor=#d79b00;" vertex="1" parent="1">
          <mxGeometry x="140" y="310" width="190" height="40" as="geometry" />
        </mxCell>
        <mxCell id="NTYFQSR5KiZM-KbyBYHa-6" value="Check camera/node Heartbeats timestamp" style="rounded=0;whiteSpace=wrap;html=1;fillColor=#fff2cc;strokeColor=#d6b656;" vertex="1" parent="1">
          <mxGeometry x="140" y="380" width="190" height="40" as="geometry" />
        </mxCell>
        <mxCell id="NTYFQSR5KiZM-KbyBYHa-7" value="Heartbeat &#xa;Timeout?" style="rhombus;whiteSpace=wrap;html=1;fillColor=#fff2cc;strokeColor=#d6b656;" vertex="1" parent="1">
          <mxGeometry x="160" y="440" width="110" height="80" as="geometry" />
        </mxCell>
        <mxCell id="NTYFQSR5KiZM-KbyBYHa-9" value="Trigger DOWN Event&lt;br&gt;- For Camera: camera_down&lt;br&gt;- For Node: node_down" style="rounded=0;whiteSpace=wrap;html=1;fillColor=#f8cecc;strokeColor=#b85450;" vertex="1" parent="1">
          <mxGeometry x="70" y="620" width="220" height="60" as="geometry" />
        </mxCell>
        <mxCell id="NTYFQSR5KiZM-KbyBYHa-11" value="MQTT Message Handler" style="rounded=1;whiteSpace=wrap;html=1;fillColor=#ffe6cc;strokeColor=#d79b00;" vertex="1" parent="1">
          <mxGeometry x="435" y="300" width="190" height="40" as="geometry" />
        </mxCell>
        <mxCell id="NTYFQSR5KiZM-KbyBYHa-12" value="Receive MQTT Message" style="rounded=0;whiteSpace=wrap;html=1;fillColor=#fff2cc;strokeColor=#d6b656;" vertex="1" parent="1">
          <mxGeometry x="435" y="360" width="190" height="40" as="geometry" />
        </mxCell>
        <mxCell id="NTYFQSR5KiZM-KbyBYHa-13" value="Check camera/node status" style="rhombus;whiteSpace=wrap;html=1;fillColor=#fff2cc;strokeColor=#d6b656;" vertex="1" parent="1">
          <mxGeometry x="475" y="440" width="110" height="80" as="geometry" />
        </mxCell>
        <mxCell id="NTYFQSR5KiZM-KbyBYHa-15" value="&lt;br&gt;- Update camera/node&amp;nbsp; heartbeat timestamp&lt;div&gt;&lt;br/&gt;&lt;/div&gt;" style="rounded=0;whiteSpace=wrap;html=1;fillColor=#dae8fc;strokeColor=#6c8ebf;" vertex="1" parent="1">
          <mxGeometry x="550" y="530" width="140" height="70" as="geometry" />
        </mxCell>
        <mxCell id="NTYFQSR5KiZM-KbyBYHa-16" value="Event Process" style="rounded=1;whiteSpace=wrap;html=1;fillColor=#ffe6cc;strokeColor=#d79b00;" vertex="1" parent="1">
          <mxGeometry x="970" y="290" width="190" height="40" as="geometry" />
        </mxCell>
        <mxCell id="NTYFQSR5KiZM-KbyBYHa-17" value="Event &#xa;Type?" style="rhombus;whiteSpace=wrap;html=1;fillColor=#fff2cc;strokeColor=#d6b656;" vertex="1" parent="1">
          <mxGeometry x="820" y="370" width="490" height="80" as="geometry" />
        </mxCell>
        <mxCell id="NTYFQSR5KiZM-KbyBYHa-19" value="set camera online&amp;nbsp;&lt;div&gt;and get recover op&lt;/div&gt;" style="rounded=0;whiteSpace=wrap;html=1;fillColor=#d5e8d4;strokeColor=#82b366;" vertex="1" parent="1">
          <mxGeometry x="1130" y="510" width="180" height="60" as="geometry" />
        </mxCell>
        <mxCell id="NTYFQSR5KiZM-KbyBYHa-23" value="use recover op 2 update configmap&lt;div&gt;restart pods&amp;nbsp;&lt;/div&gt;" style="rounded=0;whiteSpace=wrap;html=1;fillColor=#d5e8d4;strokeColor=#82b366;" vertex="1" parent="1">
          <mxGeometry x="1130" y="600" width="180" height="70" as="geometry" />
        </mxCell>
        <mxCell id="NTYFQSR5KiZM-KbyBYHa-28" value="Update Prometheus Metrics&#xa;- Update node status metrics&#xa;- Update camera status metrics&#xa;- Generate status matrix" style="rounded=0;whiteSpace=wrap;html=1;fillColor=#e1d5e7;strokeColor=#9673a6;" vertex="1" parent="1">
          <mxGeometry x="910" y="970" width="200" height="70" as="geometry" />
        </mxCell>
        <mxCell id="NTYFQSR5KiZM-KbyBYHa-29" value="" style="endArrow=classic;html=1;exitX=0.5;exitY=1;exitDx=0;exitDy=0;entryX=0.5;entryY=0;entryDx=0;entryDy=0;" edge="1" parent="1" source="NTYFQSR5KiZM-KbyBYHa-1" target="NTYFQSR5KiZM-KbyBYHa-2">
          <mxGeometry width="50" height="50" relative="1" as="geometry">
            <mxPoint x="390" y="400" as="sourcePoint" />
            <mxPoint x="440" y="350" as="targetPoint" />
          </mxGeometry>
        </mxCell>
        <mxCell id="NTYFQSR5KiZM-KbyBYHa-30" value="" style="endArrow=classic;html=1;exitX=0.5;exitY=1;exitDx=0;exitDy=0;entryX=0.5;entryY=0;entryDx=0;entryDy=0;" edge="1" parent="1" source="NTYFQSR5KiZM-KbyBYHa-2" target="NTYFQSR5KiZM-KbyBYHa-3">
          <mxGeometry width="50" height="50" relative="1" as="geometry">
            <mxPoint x="390" y="400" as="sourcePoint" />
            <mxPoint x="440" y="350" as="targetPoint" />
          </mxGeometry>
        </mxCell>
        <mxCell id="NTYFQSR5KiZM-KbyBYHa-31" value="" style="endArrow=classic;html=1;exitX=0.5;exitY=1;exitDx=0;exitDy=0;entryX=0.5;entryY=0;entryDx=0;entryDy=0;edgeStyle=orthogonalEdgeStyle;" edge="1" parent="1" source="NTYFQSR5KiZM-KbyBYHa-3" target="NTYFQSR5KiZM-KbyBYHa-5">
          <mxGeometry width="50" height="50" relative="1" as="geometry">
            <mxPoint x="390" y="400" as="sourcePoint" />
            <mxPoint x="440" y="350" as="targetPoint" />
            <Array as="points">
              <mxPoint x="530" y="270" />
              <mxPoint x="235" y="270" />
            </Array>
          </mxGeometry>
        </mxCell>
        <mxCell id="NTYFQSR5KiZM-KbyBYHa-32" value="" style="endArrow=classic;html=1;exitX=0.5;exitY=1;exitDx=0;exitDy=0;entryX=0.5;entryY=0;entryDx=0;entryDy=0;edgeStyle=orthogonalEdgeStyle;" edge="1" parent="1" source="NTYFQSR5KiZM-KbyBYHa-3" target="NTYFQSR5KiZM-KbyBYHa-11">
          <mxGeometry width="50" height="50" relative="1" as="geometry">
            <mxPoint x="390" y="400" as="sourcePoint" />
            <mxPoint x="440" y="350" as="targetPoint" />
            <Array as="points">
              <mxPoint x="530" y="100" />
            </Array>
          </mxGeometry>
        </mxCell>
        <mxCell id="NTYFQSR5KiZM-KbyBYHa-33" value="" style="endArrow=classic;html=1;exitX=0.5;exitY=1;exitDx=0;exitDy=0;entryX=0.5;entryY=0;entryDx=0;entryDy=0;edgeStyle=orthogonalEdgeStyle;" edge="1" parent="1" source="NTYFQSR5KiZM-KbyBYHa-3" target="NTYFQSR5KiZM-KbyBYHa-16">
          <mxGeometry width="50" height="50" relative="1" as="geometry">
            <mxPoint x="390" y="400" as="sourcePoint" />
            <mxPoint x="440" y="350" as="targetPoint" />
            <Array as="points">
              <mxPoint x="547" y="270" />
              <mxPoint x="1065" y="270" />
            </Array>
          </mxGeometry>
        </mxCell>
        <mxCell id="NTYFQSR5KiZM-KbyBYHa-34" value="" style="endArrow=classic;html=1;exitX=0.5;exitY=1;exitDx=0;exitDy=0;entryX=0.5;entryY=0;entryDx=0;entryDy=0;" edge="1" parent="1" source="NTYFQSR5KiZM-KbyBYHa-5" target="NTYFQSR5KiZM-KbyBYHa-6">
          <mxGeometry width="50" height="50" relative="1" as="geometry">
            <mxPoint x="390" y="400" as="sourcePoint" />
            <mxPoint x="440" y="350" as="targetPoint" />
          </mxGeometry>
        </mxCell>
        <mxCell id="NTYFQSR5KiZM-KbyBYHa-35" value="" style="endArrow=classic;html=1;exitX=0.5;exitY=1;exitDx=0;exitDy=0;entryX=0.5;entryY=0;entryDx=0;entryDy=0;" edge="1" parent="1" source="NTYFQSR5KiZM-KbyBYHa-6" target="NTYFQSR5KiZM-KbyBYHa-7">
          <mxGeometry width="50" height="50" relative="1" as="geometry">
            <mxPoint x="390" y="400" as="sourcePoint" />
            <mxPoint x="440" y="350" as="targetPoint" />
          </mxGeometry>
        </mxCell>
        <mxCell id="NTYFQSR5KiZM-KbyBYHa-40" value="" style="endArrow=classic;html=1;exitX=0.5;exitY=1;exitDx=0;exitDy=0;entryX=0.5;entryY=0;entryDx=0;entryDy=0;" edge="1" parent="1" source="NTYFQSR5KiZM-KbyBYHa-11" target="NTYFQSR5KiZM-KbyBYHa-12">
          <mxGeometry width="50" height="50" relative="1" as="geometry">
            <mxPoint x="390" y="400" as="sourcePoint" />
            <mxPoint x="440" y="350" as="targetPoint" />
          </mxGeometry>
        </mxCell>
        <mxCell id="NTYFQSR5KiZM-KbyBYHa-41" value="" style="endArrow=classic;html=1;exitX=0.5;exitY=1;exitDx=0;exitDy=0;entryX=0.5;entryY=0;entryDx=0;entryDy=0;" edge="1" parent="1" source="NTYFQSR5KiZM-KbyBYHa-12" target="NTYFQSR5KiZM-KbyBYHa-13">
          <mxGeometry width="50" height="50" relative="1" as="geometry">
            <mxPoint x="390" y="400" as="sourcePoint" />
            <mxPoint x="440" y="350" as="targetPoint" />
          </mxGeometry>
        </mxCell>
        <mxCell id="NTYFQSR5KiZM-KbyBYHa-44" value="" style="endArrow=classic;html=1;exitX=0.5;exitY=1;exitDx=0;exitDy=0;entryX=0.5;entryY=0;entryDx=0;entryDy=0;" edge="1" parent="1" source="NTYFQSR5KiZM-KbyBYHa-16" target="NTYFQSR5KiZM-KbyBYHa-17">
          <mxGeometry width="50" height="50" relative="1" as="geometry">
            <mxPoint x="390" y="400" as="sourcePoint" />
            <mxPoint x="440" y="350" as="targetPoint" />
          </mxGeometry>
        </mxCell>
        <mxCell id="NTYFQSR5KiZM-KbyBYHa-46" value="Camera UP" style="endArrow=classic;html=1;exitX=0.832;exitY=0.671;exitDx=0;exitDy=0;entryX=0.5;entryY=0;entryDx=0;entryDy=0;edgeStyle=orthogonalEdgeStyle;exitPerimeter=0;" edge="1" parent="1" source="NTYFQSR5KiZM-KbyBYHa-17" target="NTYFQSR5KiZM-KbyBYHa-19">
          <mxGeometry x="-0.1429" y="10" width="50" height="50" relative="1" as="geometry">
            <mxPoint x="390" y="400" as="sourcePoint" />
            <mxPoint x="440" y="350" as="targetPoint" />
            <mxPoint as="offset" />
            <Array as="points">
              <mxPoint x="1230" y="424" />
            </Array>
          </mxGeometry>
        </mxCell>
        <mxCell id="NTYFQSR5KiZM-KbyBYHa-50" value="" style="endArrow=classic;html=1;exitX=0.5;exitY=1;exitDx=0;exitDy=0;entryX=0.5;entryY=0;entryDx=0;entryDy=0;" edge="1" parent="1" source="NTYFQSR5KiZM-KbyBYHa-19" target="NTYFQSR5KiZM-KbyBYHa-23">
          <mxGeometry width="50" height="50" relative="1" as="geometry">
            <mxPoint x="390" y="400" as="sourcePoint" />
            <mxPoint x="440" y="350" as="targetPoint" />
          </mxGeometry>
        </mxCell>
        <mxCell id="NTYFQSR5KiZM-KbyBYHa-59" value="循环监控" style="endArrow=classic;html=1;entryX=0.5;entryY=0;entryDx=0;entryDy=0;edgeStyle=orthogonalEdgeStyle;exitX=0;exitY=1;exitDx=0;exitDy=0;" edge="1" parent="1" source="NTYFQSR5KiZM-KbyBYHa-6">
          <mxGeometry x="0.1178" y="-10" width="50" height="50" relative="1" as="geometry">
            <mxPoint x="140" y="589.97" as="sourcePoint" />
            <mxPoint x="195" y="299.97" as="targetPoint" />
            <Array as="points">
              <mxPoint x="140" y="600" />
              <mxPoint x="70" y="600" />
              <mxPoint x="70" y="270" />
              <mxPoint x="195" y="270" />
            </Array>
            <mxPoint as="offset" />
          </mxGeometry>
        </mxCell>
        <mxCell id="NTYFQSR5KiZM-KbyBYHa-62" value="NO" style="endArrow=classic;html=1;exitX=1;exitY=0.5;exitDx=0;exitDy=0;" edge="1" parent="1" source="NTYFQSR5KiZM-KbyBYHa-7" target="NTYFQSR5KiZM-KbyBYHa-63">
          <mxGeometry x="-0.2069" width="50" height="50" relative="1" as="geometry">
            <mxPoint x="310" y="505" as="sourcePoint" />
            <mxPoint x="320" y="480" as="targetPoint" />
            <mxPoint as="offset" />
          </mxGeometry>
        </mxCell>
        <mxCell id="NTYFQSR5KiZM-KbyBYHa-63" value="do nothing" style="rounded=0;whiteSpace=wrap;html=1;fillColor=#fff2cc;strokeColor=#d6b656;" vertex="1" parent="1">
          <mxGeometry x="300" y="460" width="80" height="40" as="geometry" />
        </mxCell>
        <mxCell id="NTYFQSR5KiZM-KbyBYHa-66" value="currentstatus=oline&amp;nbsp;&lt;div&gt;and&amp;nbsp; timeout =yes&lt;/div&gt;" style="endArrow=classic;html=1;exitX=0.5;exitY=1;exitDx=0;exitDy=0;" edge="1" parent="1" source="NTYFQSR5KiZM-KbyBYHa-7" target="NTYFQSR5KiZM-KbyBYHa-9">
          <mxGeometry x="-0.0011" y="-7" width="50" height="50" relative="1" as="geometry">
            <mxPoint x="215" y="665" as="sourcePoint" />
            <mxPoint x="220" y="810" as="targetPoint" />
            <mxPoint as="offset" />
            <Array as="points" />
          </mxGeometry>
        </mxCell>
        <mxCell id="NTYFQSR5KiZM-KbyBYHa-68" value="online" style="endArrow=classic;html=1;exitX=1;exitY=0.5;exitDx=0;exitDy=0;" edge="1" parent="1" source="NTYFQSR5KiZM-KbyBYHa-13" target="NTYFQSR5KiZM-KbyBYHa-15">
          <mxGeometry x="-0.2" width="50" height="50" relative="1" as="geometry">
            <mxPoint x="640" y="490" as="sourcePoint" />
            <mxPoint x="630" y="480" as="targetPoint" />
            <mxPoint as="offset" />
          </mxGeometry>
        </mxCell>
        <mxCell id="NTYFQSR5KiZM-KbyBYHa-70" value="not oline&amp;nbsp;&lt;div&gt;&lt;br&gt;&lt;/div&gt;" style="endArrow=classic;html=1;exitX=0.504;exitY=0.951;exitDx=0;exitDy=0;exitPerimeter=0;entryX=0.522;entryY=0.016;entryDx=0;entryDy=0;entryPerimeter=0;" edge="1" parent="1" source="NTYFQSR5KiZM-KbyBYHa-13" target="NTYFQSR5KiZM-KbyBYHa-71">
          <mxGeometry x="-0.3904" y="-2" width="50" height="50" relative="1" as="geometry">
            <mxPoint x="520" y="550" as="sourcePoint" />
            <mxPoint x="493" y="650" as="targetPoint" />
            <mxPoint as="offset" />
            <Array as="points" />
          </mxGeometry>
        </mxCell>
        <mxCell id="NTYFQSR5KiZM-KbyBYHa-71" value="&lt;div&gt;- Update camera/node&amp;nbsp; heartbeat timestamp&lt;/div&gt;Trigger DOWN Event&lt;br&gt;- For Camera: camera_up&lt;br&gt;- For Node: node_up" style="rounded=0;whiteSpace=wrap;html=1;fillColor=#f8cecc;strokeColor=#b85450;" vertex="1" parent="1">
          <mxGeometry x="365" y="620" width="220" height="90" as="geometry" />
        </mxCell>
        <mxCell id="NTYFQSR5KiZM-KbyBYHa-76" value="" style="edgeStyle=orthogonalEdgeStyle;rounded=0;orthogonalLoop=1;jettySize=auto;html=1;" edge="1" parent="1" source="NTYFQSR5KiZM-KbyBYHa-73" target="NTYFQSR5KiZM-KbyBYHa-75">
          <mxGeometry relative="1" as="geometry" />
        </mxCell>
        <mxCell id="NTYFQSR5KiZM-KbyBYHa-73" value="set camera online&amp;nbsp;&lt;div&gt;and get down&amp;nbsp;&lt;/div&gt;" style="rounded=0;whiteSpace=wrap;html=1;fillColor=#f8cecc;strokeColor=#b85450;" vertex="1" parent="1">
          <mxGeometry x="1340" y="505" width="180" height="70" as="geometry" />
        </mxCell>
        <mxCell id="NTYFQSR5KiZM-KbyBYHa-74" value="Camera down" style="endArrow=classic;html=1;edgeStyle=orthogonalEdgeStyle;entryX=0.5;entryY=0;entryDx=0;entryDy=0;" edge="1" parent="1" source="NTYFQSR5KiZM-KbyBYHa-17" target="NTYFQSR5KiZM-KbyBYHa-73">
          <mxGeometry x="-0.1429" y="10" width="50" height="50" relative="1" as="geometry">
            <mxPoint x="1380" y="389" as="sourcePoint" />
            <mxPoint x="1420" y="480" as="targetPoint" />
            <mxPoint as="offset" />
            <Array as="points">
              <mxPoint x="1430" y="389" />
            </Array>
          </mxGeometry>
        </mxCell>
        <mxCell id="NTYFQSR5KiZM-KbyBYHa-75" value="use down op 2 update configmap&lt;div&gt;restart pods&amp;nbsp;&lt;/div&gt;" style="rounded=0;whiteSpace=wrap;html=1;fillColor=#f8cecc;strokeColor=#b85450;" vertex="1" parent="1">
          <mxGeometry x="1340" y="600" width="180" height="70" as="geometry" />
        </mxCell>
        <mxCell id="NTYFQSR5KiZM-KbyBYHa-77" value="set node online&amp;nbsp;&lt;div&gt;and get recover op&lt;/div&gt;" style="rounded=0;whiteSpace=wrap;html=1;fillColor=#d5e8d4;strokeColor=#82b366;" vertex="1" parent="1">
          <mxGeometry x="940" y="510" width="180" height="60" as="geometry" />
        </mxCell>
        <mxCell id="NTYFQSR5KiZM-KbyBYHa-78" value="use recover op 2 update configmap&lt;div&gt;restart pods&amp;nbsp;&lt;/div&gt;" style="rounded=0;whiteSpace=wrap;html=1;fillColor=#d5e8d4;strokeColor=#82b366;" vertex="1" parent="1">
          <mxGeometry x="940" y="600" width="180" height="70" as="geometry" />
        </mxCell>
        <mxCell id="NTYFQSR5KiZM-KbyBYHa-79" value="" style="endArrow=classic;html=1;exitX=0.5;exitY=1;exitDx=0;exitDy=0;entryX=0.5;entryY=0;entryDx=0;entryDy=0;" edge="1" parent="1" source="NTYFQSR5KiZM-KbyBYHa-77" target="NTYFQSR5KiZM-KbyBYHa-78">
          <mxGeometry width="50" height="50" relative="1" as="geometry">
            <mxPoint x="230" y="390" as="sourcePoint" />
            <mxPoint x="280" y="340" as="targetPoint" />
          </mxGeometry>
        </mxCell>
        <mxCell id="NTYFQSR5KiZM-KbyBYHa-82" value="node up" style="endArrow=classic;html=1;exitX=0.434;exitY=0.93;exitDx=0;exitDy=0;exitPerimeter=0;" edge="1" parent="1" source="NTYFQSR5KiZM-KbyBYHa-17" target="NTYFQSR5KiZM-KbyBYHa-77">
          <mxGeometry x="-0.3904" y="-2" width="50" height="50" relative="1" as="geometry">
            <mxPoint x="1170" y="420.00000000000045" as="sourcePoint" />
            <mxPoint x="623.91" y="604.52" as="targetPoint" />
            <mxPoint as="offset" />
            <Array as="points" />
          </mxGeometry>
        </mxCell>
        <mxCell id="NTYFQSR5KiZM-KbyBYHa-86" value="" style="edgeStyle=orthogonalEdgeStyle;rounded=0;orthogonalLoop=1;jettySize=auto;html=1;" edge="1" parent="1" source="NTYFQSR5KiZM-KbyBYHa-87" target="NTYFQSR5KiZM-KbyBYHa-88">
          <mxGeometry relative="1" as="geometry" />
        </mxCell>
        <mxCell id="NTYFQSR5KiZM-KbyBYHa-87" value="set node not online&amp;nbsp;&lt;div&gt;and get down op&lt;/div&gt;" style="rounded=0;whiteSpace=wrap;html=1;fillColor=#f8cecc;strokeColor=#b85450;" vertex="1" parent="1">
          <mxGeometry x="740" y="510" width="180" height="60" as="geometry" />
        </mxCell>
        <mxCell id="NTYFQSR5KiZM-KbyBYHa-88" value="use down op 2 update configmap&lt;div&gt;restart pods&amp;nbsp;&lt;/div&gt;" style="rounded=0;whiteSpace=wrap;html=1;fillColor=#f8cecc;strokeColor=#b85450;" vertex="1" parent="1">
          <mxGeometry x="740" y="600" width="180" height="70" as="geometry" />
        </mxCell>
        <mxCell id="NTYFQSR5KiZM-KbyBYHa-89" value="node up" style="endArrow=classic;html=1;exitX=0.141;exitY=0.654;exitDx=0;exitDy=0;exitPerimeter=0;" edge="1" parent="1" source="NTYFQSR5KiZM-KbyBYHa-17" target="NTYFQSR5KiZM-KbyBYHa-87">
          <mxGeometry x="-0.3904" y="-2" width="50" height="50" relative="1" as="geometry">
            <mxPoint x="1043" y="454" as="sourcePoint" />
            <mxPoint x="1041" y="520" as="targetPoint" />
            <mxPoint as="offset" />
            <Array as="points">
              <mxPoint x="860" y="470" />
            </Array>
          </mxGeometry>
        </mxCell>
        <mxCell id="NTYFQSR5KiZM-KbyBYHa-92" value="down op :&amp;nbsp; camera_down means unuse the camera ,nodedown means change camera 2 another usable node&amp;nbsp;" style="text;html=1;align=center;verticalAlign=middle;whiteSpace=wrap;rounded=0;" vertex="1" parent="1">
          <mxGeometry x="910" y="720" width="610" height="30" as="geometry" />
        </mxCell>
        <mxCell id="NTYFQSR5KiZM-KbyBYHa-94" value="recover op :&amp;nbsp; 1st priority&amp;nbsp; to recover 2 original status&amp;nbsp; or else just make&amp;nbsp; camera&amp;nbsp; usable" style="text;html=1;align=center;verticalAlign=middle;whiteSpace=wrap;rounded=0;" vertex="1" parent="1">
          <mxGeometry x="910" y="740" width="610" height="30" as="geometry" />
        </mxCell>
      </root>
    </mxGraphModel>
  </diagram>
</mxfile>
